<?xml version="1.0" encoding="utf-8"?>
<!-- Generator: Adobe Illustrator 26.5.0, SVG Export Plug-In . SVG Version: 6.00 Build 0)  -->
<svg version="1.1" id="Layer_1" xmlns="http://www.w3.org/2000/svg" xmlns:xlink="http://www.w3.org/1999/xlink" x="0px" y="0px"
	 viewBox="0 0 1433.1 606.9" style="enable-background:new 0 0 1433.1 606.9;" xml:space="preserve">
<style type="text/css">
	.st0{fill:#0033A0;}
	.st1{fill:none;}
</style>
<g>
	<path class="st0" d="M1199,344.2c-17.6,0-31.9,14.3-31.9,31.9c0,17.6,14.3,31.9,31.9,31.9c17.6,0,31.9-14.3,31.9-31.9
		C1230.9,358.4,1216.6,344.2,1199,344.2z"/>
	<path class="st0" d="M991.9,206c0.4,1.2,0.6,2.7,0.6,4.5l0,131.9c0,7.7-0.9,12.7-3.6,16.3c-2.5,3.4-6.3,5.1-10.6,5.1
		c-4.3,0-8.1-1.7-10.6-5.1c-2.7-3.6-3.6-8.6-3.6-16.3l0-131.9c0.1-1.8,0.2-3.3,0.6-4.5c1-2.7,2.9-3.7,2.9-3.7h-64.8c0,0,2,1,2.9,3.7
		c0.4,1.2,0.6,2.7,0.6,4.5l0,134.3c0,35.8,21.9,64.5,70.6,64.5c0.4,0,2.1,0,2.5,0c48.7,0,70.6-28.7,70.6-64.5l0-134.3
		c0-1.8,0.2-3.3,0.6-4.5c1-2.7,2.9-3.7,2.9-3.7H989C989,202.3,990.9,203.3,991.9,206z"/>
	<path class="st0" d="M899.1,358.3c-1.2,0.4-2.7,0.6-4.5,0.6h-33.4l0-148.5c0.1-1.8,0.2-3.3,0.6-4.5c1-2.7,2.9-3.7,2.9-3.7h-64.8
		c0,0,2,1,2.9,3.7c0.3,1,0.5,2.1,0.6,3.4l0,187c-0.1,1.8-0.2,3.3-0.6,4.5c-1,2.7-2.9,3.7-2.9,3.7l102.9,0v-49.2
		C902.8,355.4,901.8,357.3,899.1,358.3z"/>
	<path class="st0" d="M1150.3,400.9c-0.4-1.2-0.6-2.7-0.6-4.5l0-148.5h25.3c1.8,0,3.3,0.2,4.5,0.6c2.7,1,3.7,2.9,3.7,2.9v-49.2
		h-124.7v49.2c0,0,1-2,3.7-2.9c1.2-0.4,2.7-0.6,4.5-0.6h25.2l0,149.5c-0.1,1.3-0.2,2.5-0.6,3.4c-1,2.7-2.9,3.7-2.9,3.7h64.8
		C1153.2,404.6,1151.3,403.6,1150.3,400.9z"/>
	<path class="st0" d="M716.7,198.3L716.7,198.3C716.7,198.3,716.6,198.3,716.7,198.3c-0.1,0-0.1,0-0.1,0v0
		c-51.9,0.2-76.2,39.6-76.8,103h0c0,0.6,0,4.5,0,5.1h0c0.6,63.4,24.9,102.7,76.8,103v0c0,0,0,0,0.1,0s0,0,0.1,0v0
		c51.9-0.2,76.2-39.6,76.8-103h0c0-0.6,0-4.5,0-5.1h0C792.9,237.9,768.5,198.5,716.7,198.3z M734.1,306.4c0,27.6-0.8,57.3-17.5,57.8
		c-16.7-0.5-17.5-30.3-17.5-57.8c0-1.6,0-3.5,0-5.1c0-27.6,0.8-57.7,17.5-58.3c16.7,0.5,17.5,30.7,17.5,58.3
		C734.1,302.9,734.1,304.8,734.1,306.4z"/>
	<path class="st0" d="M1212.6,238c11.1,0,20.1-9,20.1-20c0-11-9-20-20.1-20c-11.1,0-20.1,9-20.1,20
		C1192.6,229,1201.5,238,1212.6,238z M1212.6,200.1c9.9,0,18,8,18,17.9c0,9.9-8,17.9-18,17.9c-9.9,0-18-8-18-17.9
		C1194.6,208.1,1202.7,200.1,1212.6,200.1z"/>
	<path class="st0" d="M1207.8,219.4h5l5.7,9.6h3.9l-6-9.8c3.3-0.5,5.4-3,5.4-6.4c0-4.4-2.8-6.5-8.5-6.5h-8.7V229h3.2V219.4z
		 M1207.8,209.1h5.5c2.9,0,5.4,0.3,5.4,3.8c0,3.3-2.7,3.7-5.4,3.7h-5.6V209.1z"/>
	<path class="st0" d="M466.2,299.7h-0.4c19.7-0.5,37.1-20.5,36.1-45.7c-1.5-36.1-28.3-51.7-73.6-51.7l-61.2,0c0,0,2,1,2.9,3.7
		c0.8,2.4,0.6,5.6,0.6,10.5v174c0,11.2-1.7,14.1-1.7,14.1l72.9,0c45.7,0,68.1-22.3,68.1-56C509.9,319.8,489,301.3,466.2,299.7z
		 M426.9,243.4h3.8c11.3,0,21.7,5.8,20.9,20.4c-0.7,13.3-10,18.9-20.9,18.9h-3.8V243.4z M430.3,363.6h-3.6v-44.3h3.6
		c15.2,0,24.3,8.3,24.4,21.4C454.9,357.5,444.3,363.6,430.3,363.6z"/>
	<path class="st0" d="M359.7,382.2c0,0-38.4-166-39.3-169.9c-1.7-7.5,2.2-10,2.2-10h-72.8c0,0,3.9,2.5,2.2,10
		c-0.9,3.9-39.3,169.9-39.3,169.9c-4.6,21.1-10.5,22.4-10.5,22.4l66.9,0c0,0-4.8-1.8-3.8-9c1.1-7.2,3.8-23.6,3.8-23.6h34.1
		c0,0,2.7,16.4,3.8,23.6c1.1,7.2-3.8,9-3.8,9l63.6,0C367,404.6,364.3,403.4,359.7,382.2z M274.6,334.8l11.6-80.3l11.6,80.3H274.6z"
		/>
	<path class="st0" d="M619,302.9c-10.5-11.3-22.9-21.2-35.2-30.5c-10.6-8-15.7-13.6-13.3-21.4c4.8-15.7,34-5.3,51.6,7.1v-53.3
		c0,0-3.2,4.1-9,1.9c-10-3.7-18.3-8.3-35.7-8.3c-39.8-0.2-62.2,29.1-62.4,57.5c-0.2,20.1,5.7,34.7,22,49.1
		c12.4,10.9,26.3,21.2,34.9,29.3c6.2,5.8,10.3,14.2,7.3,21.3c-5,11.9-28.4,11.7-63-17.9v60.1c0,0,4.2-3.8,10.1-0.9
		c9.9,4.9,26.4,12.4,43.3,12.7c46.5,0.6,70.5-29.8,67.3-67.5C635.8,327.2,630.1,314.7,619,302.9z"/>
</g>
<rect class="st1" width="1433.1" height="606.9"/>
</svg>
