<?xml version="1.0" encoding="utf-8"?>
<!-- Generator: Adobe Illustrator 26.5.0, SVG Export Plug-In . SVG Version: 6.00 Build 0)  -->
<svg version="1.1" id="Wordmark" xmlns="http://www.w3.org/2000/svg" xmlns:xlink="http://www.w3.org/1999/xlink" x="0px" y="0px"
	 viewBox="0 0 595.3 144.9" style="enable-background:new 0 0 595.3 144.9;" xml:space="preserve">
<style type="text/css">
	.st0{fill:none;}
	.st1{fill:#004027;}
</style>
<g>
	<rect x="13.1" y="6.4" class="st0" width="569" height="132.2"/>
	<path class="st1" d="M574,75.9c0.6,0.2,1.4-0.1,1.8-1.4c0.3-1.1-0.2-1.7-0.9-1.8l-0.6-0.2l-0.9,3.2L574,75.9z M569.6,78.3
		c0.9,0.1,1,0.1,1.2-0.6l1.3-4.9c0.2-0.7,0.1-0.8-0.8-1.1l0.2-0.6l4.5,1.2c1.3,0.4,2.3,1.2,1.9,2.7c-0.3,1-1.2,1.7-2.3,1.7l0.9,2.8
		c0.2,0.6,0.5,0.9,0.8,1l-0.2,0.6l-1.9-0.5c-0.4-0.1-0.6-0.5-0.8-1.1l-0.8-3l-0.5-0.1l-0.5,1.9c-0.2,0.7-0.1,0.8,0.7,1.1l-0.2,0.6
		l-3.8-1.1L569.6,78.3z M575.8,70.3c-3.3-0.9-6.4,1-7.3,4.3c-0.9,3.3,0.8,6.5,4.1,7.4c3.3,0.9,6.4-1,7.3-4.3
		C580.9,74.4,579.1,71.2,575.8,70.3 M576.3,68.5c4.2,1.2,6.7,5.5,5.5,9.7c-1.2,4.2-5.5,6.7-9.7,5.5c-4.2-1.2-6.7-5.5-5.5-9.7
		C567.8,69.8,572.1,67.4,576.3,68.5 M532.8,92c0.6,2.4,0.6,5.4,0.6,5.4s-0.1-1.5,1-5.1l9.6-28.3c2.4-7.3,2.4-12.6-0.9-16.8l0.1-0.2
		l23.3,8.7l-0.1,0.3c-4.9,1.4-8.6,5.4-11,12.8c-1.4,4.4-22.7,67.2-22.7,67.2l-11.8-4.5L509.4,74c-0.6-2.3-0.6-5.4-0.6-5.4
		s0.1,1.5-1,5.1c-1,3.3-10.6,32.1-10.6,32.1c-2.2,7.7-1.9,12.9,1.2,17l-0.1,0.3l-25-7.3l0-0.3c5.1-1.4,9.4-5.3,11.8-12.6l15.8-49.6
		c2.4-8.1,1.8-15.5-2.6-19.8l0.1-0.3l23,6.7L532.8,92z M452.7,32c-11.3-2.5-18.8,11.2-22.7,28.8c-4.1,18.6-2.2,33,8.1,35.2
		c9.8,2.2,18.2-10,22.2-28.6C464.3,49.9,464,34.5,452.7,32 M480.2,71.9c-6,24.6-24.3,41.7-45.8,37c-23.4-5.1-30.6-27.3-24.6-52.4
		c6-24.8,23-40.5,44.9-36.8C480.7,24,486.1,47.8,480.2,71.9 M367.1,97.5c-11-0.3-12.2-3.5-18.4-4.9c-4.6-1-7.7,1-9,2.6l-0.3,0
		l1.3-30.4l0.3,0c2.2,5.9,8.6,14.1,16,18.2c6.7,3.8,13.5,2.2,17-2.2c3-3.8,3.8-11-1-15.8c-4.8-4.9-12.3-8.1-18.6-13
		c-12.8-9.8-11.9-23.1-8-30.5c5.6-10.3,17.3-14.5,27.7-13.5c6.4,0.6,9.2,2.2,13.7,3.7c4.5,1.4,8.4,0.6,9.2,0.1l0.3,0l-2,24l-0.3,0
		c-2.3-6.4-9.9-14.3-17.8-15.8c-7-1.3-10.8,1.2-12.6,4.1c-2.6,4.4-1.5,9.4,3.3,12.7c7,4.8,15.4,8.4,21,13.7
		c8.1,7.6,10.7,21.2,3.5,33.1C386.7,93.3,375.3,97.8,367.1,97.5 M327.1,6.9l-0.6,19l-0.3,0c-3-7.1-10.7-8.5-17.5-8.4l-14.9,0.2
		l-0.4,22.9l7.5,0.2c10,0.2,13-0.6,16.6-7l0.3,0l-1,27.2l-0.3,0c-3.3-7.1-10.7-7.5-17.6-7.5l-5.6,0l-0.6,25.2l15.5,0.3
		c10,0.2,15-2.6,18.3-8.4l0.3,0.1L324.1,93c-18.3-0.6-39.4-0.7-55.7,0l0-0.3c3.7-2.4,5.7-8,5.8-16.3l0.6-54.1
		c0.1-7.7-0.5-12.6-5.8-15.3l0-0.3C286.8,6.2,309.5,6.1,327.1,6.9 M227.1,9.6l26.3-2l0.1,0.3c-6.9,3.3-6.1,9.2-5.4,18.3l3.5,52.3
		c0.8,7.6,2.7,13.6,6.1,15l0,0.3c0,0-6.1,0.4-14.6,1c-8.4,0.7-14.7,1.3-14.7,1.3l-0.1-0.3c3.1-2.1,5.7-8.5,5.1-16.4
		c0,0-2.3-34-2.5-36.8c-0.3-3.2,0-5.4,0-5.4s-0.4,2.4-1.2,5.1c-0.8,2.8-16.9,56.6-16.9,56.6l-0.4,0c0,0-23.9-44.3-26.1-47.8
		c-1.7-2.8-2.4-5.5-2.4-5.5s0.8,2.5,1.4,5.9c0.6,3.4,4.8,33.2,4.8,33.2c1.4,7.8,5.5,13.4,9,14.7l0,0.3l-23.1,3.8l-0.1-0.3
		c2.9-2.3,3.3-8.5,2.3-16.1l-7-51.8c-1.1-7.9-5.1-14.2-10.9-16.1l0-0.3l26.3-4.5c0,0,21.9,39.8,25.8,45.8
		C214.6,52.7,227.1,9.6,227.1,9.6 M116.1,48.1l-2.2,32.1l16-4.4L116.1,48.1z M154.9,108c-5.7,1.5-15.4,3.6-15.4,3.6l-0.1-0.3
		c2.3-2.1,4.7-7,1.2-13.8l-5.3-10.7l-22.3,6l-0.9,12.6c0,7.5,3.9,10.8,6.9,11.4l0.1,0.3c0,0-7.2,2.2-12.7,3.8
		c-5.5,1.8-12.4,3.8-12.4,3.8l-0.1-0.3c2.2-1.8,4.5-8.1,5-15.4c1.3-19.5,3.1-48.7,4.7-61.7c0.8-6.3,0-12.2-4.8-13.9l-0.1-0.3
		c0,0,6.8-2,15.1-4c6.9-1.7,15.2-3.8,15.2-3.8l0.1,0.3c-3.2,4.3-0.7,8.8,2.3,14.4c2.9,5.4,27.4,50.2,29.4,53.9
		c3.6,6.2,5.9,8.7,9.6,10.4l0,0.3C170.4,104.7,160.7,106.8,154.9,108 M49.5,59.4c-1.3-4.9-5.5-7.4-8.3-7.6l-0.1-0.3
		c0,0,7.7-2.8,13.3-4.7c5.8-2,14-4.7,14-4.7l0.1,0.3c-2.1,1.9-3.1,6-1.9,10.7c0,0,10.6,41.6,12.1,47.1c1.5,5.5,3.6,8.6,6.5,9
		l0.1,0.3c-1.5,1.4-2.7,5-4.2,8.3C79.6,121,76.4,131.2,64,136c-13.5,5.2-27.2,2.1-33.1-7.4c-3.8-6.2-3-14.7,3.2-18.2
		c5.3-3,11.1-1.1,13.3,3.3c2.1,4.3,0.7,8.8-1,10.4c-0.4,0.3,0,0.9,0.8,1.5c3.6,2.5,7.7,2.3,11.7,0.2c5-2.7,6.7-7,4.1-17.1
		C60.9,100.5,50.9,64.9,49.5,59.4"/>
</g>
</svg>
