<?xml version="1.0" encoding="UTF-8"?>
<svg id="Layer_6" data-name="Layer 6" xmlns="http://www.w3.org/2000/svg" viewBox="0 0 708.66 396.85">
  <defs>
    <style>
      .cls-1 {
        fill: #2d2926;
      }
    </style>
  </defs>
  <polygon class="cls-1" points="313.14 102.56 256.75 102.56 273.98 116.02 330.37 116.02 313.14 102.56"/>
  <polygon class="cls-1" points="313.01 173.86 257.02 173.86 274.39 187.43 330.38 187.43 313.01 173.86"/>
  <polygon class="cls-1" points="597.36 116.02 631.24 116.02 614.01 102.56 580.14 102.56 597.36 116.02"/>
  <polygon class="cls-1" points="594.77 256.72 594.77 118.16 576.89 104.2 576.89 242.75 594.77 256.72"/>
  <polygon class="cls-1" points="313.01 99.27 330.27 85.78 235.28 85.78 252.54 99.27 313.01 99.27"/>
  <polygon class="cls-1" points="316.31 100.86 333.07 113.95 333.07 87.77 316.31 100.86"/>
  <polygon class="cls-1" points="271.86 154.84 271.86 118.53 252.55 103.45 252.55 169.92 271.86 154.84"/>
  <polygon class="cls-1" points="249.26 243.71 249.26 100.88 232.35 87.66 232.35 256.93 249.26 243.71"/>
  <polygon class="cls-1" points="252.87 245.07 235.52 258.63 330.21 258.63 312.86 245.07 252.87 245.07"/>
  <polygon class="cls-1" points="271.86 226.06 271.86 189.63 252.55 174.54 252.55 241.15 271.86 226.06"/>
  <polygon class="cls-1" points="330.16 228.27 274.38 228.27 257.08 241.78 312.86 241.78 330.16 228.27"/>
  <polygon class="cls-1" points="316.09 243.42 333.08 256.7 333.08 230.15 316.09 243.42"/>
  <polygon class="cls-1" points="330.28 157 274.43 157 257.06 170.57 312.91 170.57 330.28 157"/>
  <polygon class="cls-1" points="316.2 172.18 333.08 185.37 333.08 158.99 316.2 172.18"/>
  <polygon class="cls-1" points="461.76 258.63 495.51 258.63 478.64 245.44 461.76 258.63"/>
  <polygon class="cls-1" points="558.63 258.63 591.87 258.63 575.25 245.64 558.63 258.63"/>
  <polygon class="cls-1" points="555.65 118.21 555.65 256.78 573.61 242.75 573.61 104.18 555.65 118.21"/>
  <polygon class="cls-1" points="533.12 100.91 516.28 87.75 516.28 114.08 533.12 100.91"/>
  <polygon class="cls-1" points="519.14 116.02 553.11 116.02 570.34 102.56 536.36 102.56 519.14 116.02"/>
  <polygon class="cls-1" points="614.02 99.27 631.27 85.79 519.1 85.79 536.36 99.27 614.02 99.27"/>
  <polygon class="cls-1" points="441.84 99.22 435.75 103.97 435.75 142.68 447.79 189.61 467.18 204.76 441.84 99.22"/>
  <path class="cls-1" d="m457.03,87.35l-12.34,9.64,34.8,144.94,18.07,14.12-40.52-168.71Z"/>
  <polygon class="cls-1" points="468.44 210.01 449.04 225.16 458.25 257.2 476.37 243.04 468.44 210.01"/>
  <polygon class="cls-1" points="406.45 258.63 372.7 258.63 389.57 245.44 406.45 258.63"/>
  <polygon class="cls-1" points="404.56 209.58 421.66 222.94 446.54 222.94 463.65 209.58 404.56 209.58"/>
  <polygon class="cls-1" points="404.4 206.29 421.73 192.75 446.47 192.75 463.8 206.29 404.4 206.29"/>
  <polygon class="cls-1" points="414.47 85.74 434.1 101.09 453.74 85.74 414.47 85.74"/>
  <polygon class="cls-1" points="426.37 99.22 432.46 103.97 432.46 142.68 420.42 189.61 401.03 204.76 426.37 99.22"/>
  <path class="cls-1" d="m370.65,256.05l18.07-14.12,34.8-144.94-12.34-9.64-40.52,168.71Z"/>
  <polygon class="cls-1" points="399.77 210.01 419.17 225.16 409.96 257.2 391.84 243.04 399.77 210.01"/>
  <path class="cls-1" d="m75.54,256.97l18-14.02V101.43l-18-14.06v169.59Z"/>
  <g>
    <path class="cls-1" d="m178.77,239.76l-13.62-10.64c-7.47,10.02-16.15,15.71-28.59,15.71h-40.03l-17.72,13.84h60.45c15.94,0,30.18-7.39,39.5-18.91Z"/>
    <path class="cls-1" d="m190.08,207.88c0-15.04-8.91-27.31-15.11-34.02h-27.28c12.33,5.31,24.54,17.63,24.54,34.05,0,7.05-2.01,13.27-5.22,18.49l13.75,10.74c5.86-8.28,9.32-18.37,9.32-29.25Z"/>
    <polygon class="cls-1" points="96.82 240.39 114.82 226.37 114.82 189.79 96.82 175.73 96.82 240.39"/>
    <path class="cls-1" d="m162.59,227.34l-13.26-10.58c-3.84,6.69-11.65,11.61-20,11.61h-11.72l-17.78,13.89h36c12.54,0,20.96-6.63,26.77-14.92Z"/>
    <path class="cls-1" d="m138.33,173.86h-38.57l17.33,13.54h14.22c11.3,0,20.49,9.18,20.49,20.48,0,1.99-.39,3.94-1.07,5.8l13.63,10.87c3.24-5.53,5-11.51,5-16.65,0-19.41-18.54-31.96-31.04-34.05Z"/>
  </g>
  <g>
    <path class="cls-1" d="m139.27,85.76h-60.45l17.72,13.84h40.03c12.44,0,21.13,5.69,28.59,15.71l13.62-10.64c-9.32-11.52-23.56-18.91-39.5-18.91Z"/>
    <path class="cls-1" d="m180.76,107.3l-13.75,10.74c3.21,5.22,5.22,11.43,5.22,18.49,0,16.41-12.21,28.74-24.54,34.05h27.28c6.2-6.71,15.11-18.98,15.11-34.02,0-10.89-3.46-20.98-9.32-29.25Z"/>
    <polygon class="cls-1" points="96.82 168.7 114.82 154.64 114.82 118.06 96.82 104.04 96.82 168.7"/>
    <path class="cls-1" d="m135.82,102.17h-36l17.78,13.89h11.72c8.35,0,16.16,4.92,20,11.61l13.26-10.58c-5.81-8.29-14.22-14.92-26.77-14.92Z"/>
    <path class="cls-1" d="m169.37,136.52c0-5.14-1.76-11.12-5-16.65l-13.63,10.87c.68,1.87,1.07,3.81,1.07,5.8,0,11.3-9.19,20.48-20.49,20.48h-14.22l-17.33,13.54h38.57c12.5-2.09,31.04-14.64,31.04-34.05Z"/>
  </g>
  <g>
    <path class="cls-1" d="m204.31,296.52h5.48c3.23,0,5.28,1.85,5.28,4.64v.04c0,3.11-2.5,4.74-5.56,4.74h-2.76v4.46h-2.44v-13.89Zm5.28,7.22c1.85,0,3-1.03,3-2.48v-.04c0-1.63-1.17-2.48-3-2.48h-2.84v5h2.84Z"/>
    <path class="cls-1" d="m229.47,296.52h10.3v2.18h-7.86v3.61h6.96v2.18h-6.96v3.73h7.96v2.18h-10.4v-13.89Z"/>
    <path class="cls-1" d="m254.67,296.52h6.19c1.75,0,3.12.52,4.01,1.39.73.75,1.15,1.79,1.15,3v.04c0,2.28-1.37,3.65-3.31,4.21l3.75,5.26h-2.88l-3.41-4.84h-3.06v4.84h-2.44v-13.89Zm6.01,6.88c1.75,0,2.86-.91,2.86-2.32v-.04c0-1.49-1.07-2.3-2.88-2.3h-3.55v4.66h3.57Z"/>
    <path class="cls-1" d="m280.91,296.52h2.26l7.44,9.6v-9.6h2.4v13.89h-2.04l-7.66-9.88v9.88h-2.4v-13.89Z"/>
    <path class="cls-1" d="m307.88,303.51v-.04c0-3.91,3.02-7.18,7.28-7.18s7.24,3.23,7.24,7.14v.04c0,3.91-3.02,7.18-7.28,7.18s-7.24-3.23-7.24-7.14Zm11.96,0v-.04c0-2.7-1.96-4.94-4.72-4.94s-4.68,2.2-4.68,4.9v.04c0,2.7,1.96,4.94,4.72,4.94s4.68-2.2,4.68-4.9Z"/>
    <path class="cls-1" d="m337.26,296.52h5.18c4.36,0,7.38,3,7.38,6.9v.04c0,3.91-3.02,6.94-7.38,6.94h-5.18v-13.89Zm5.18,11.67c2.92,0,4.82-1.96,4.82-4.68v-.04c0-2.72-1.9-4.72-4.82-4.72h-2.74v9.44h2.74Z"/>
    <path class="cls-1" d="m382.54,296.52h6.19c1.75,0,3.12.52,4.01,1.39.73.75,1.15,1.79,1.15,3v.04c0,2.28-1.37,3.65-3.31,4.21l3.75,5.26h-2.88l-3.41-4.84h-3.06v4.84h-2.44v-13.89Zm6.01,6.88c1.75,0,2.86-.91,2.86-2.32v-.04c0-1.49-1.07-2.3-2.88-2.3h-3.55v4.66h3.57Z"/>
    <path class="cls-1" d="m408.93,296.52h2.44v13.89h-2.44v-13.89Z"/>
    <path class="cls-1" d="m426.37,303.51v-.04c0-3.95,2.96-7.18,7.16-7.18,2.56,0,4.11.89,5.44,2.16l-1.57,1.81c-1.11-1.03-2.3-1.73-3.89-1.73-2.66,0-4.58,2.18-4.58,4.9v.04c0,2.72,1.92,4.94,4.58,4.94,1.71,0,2.8-.69,3.99-1.81l1.57,1.59c-1.45,1.51-3.04,2.46-5.63,2.46-4.05,0-7.06-3.15-7.06-7.14Z"/>
    <path class="cls-1" d="m458.45,296.42h2.26l6.11,13.99h-2.58l-1.41-3.35h-6.57l-1.43,3.35h-2.5l6.11-13.99Zm3.49,8.47l-2.4-5.56-2.38,5.56h4.78Z"/>
    <path class="cls-1" d="m481.11,296.52h6.19c1.75,0,3.12.52,4.01,1.39.73.75,1.15,1.79,1.15,3v.04c0,2.28-1.37,3.65-3.31,4.21l3.75,5.26h-2.88l-3.41-4.84h-3.06v4.84h-2.44v-13.89Zm6.01,6.88c1.75,0,2.86-.91,2.86-2.32v-.04c0-1.49-1.07-2.3-2.88-2.3h-3.55v4.66h3.57Z"/>
    <path class="cls-1" d="m507.36,296.52h5.18c4.36,0,7.38,3,7.38,6.9v.04c0,3.91-3.02,6.94-7.38,6.94h-5.18v-13.89Zm5.18,11.67c2.92,0,4.82-1.96,4.82-4.68v-.04c0-2.72-1.9-4.72-4.82-4.72h-2.74v9.44h2.74Z"/>
  </g>
</svg>
