<?xml version="1.0" standalone="no"?>
<!DOCTYPE svg PUBLIC "-//W3C//DTD SVG 20010904//EN"
 "http://www.w3.org/TR/2001/REC-SVG-20010904/DTD/svg10.dtd">
<svg version="1.0" xmlns="http://www.w3.org/2000/svg"
 width="3025.000000pt" height="3025.000000pt" viewBox="0 0 3025.000000 3025.000000"
 preserveAspectRatio="xMidYMid meet">
<metadata>
Created by potrace 1.14, written by Peter Selinger 2001-2017
</metadata>
<g transform="translate(0.000000,3025.000000) scale(0.100000,-0.100000)"
fill="#000000" stroke="none">
<path d="M3650 19812 c0 -4 15 -17 33 -29 18 -13 42 -31 53 -41 10 -9 29 -24
41 -32 11 -8 59 -45 105 -81 45 -36 137 -107 203 -159 66 -51 122 -96 125 -99
3 -3 43 -35 88 -70 l84 -63 888 -1 c938 0 982 -2 1155 -47 255 -67 491 -224
705 -470 30 -34 66 -78 79 -96 13 -19 28 -34 34 -34 5 0 102 73 215 162 114
89 239 187 279 217 40 31 72 59 73 63 0 4 -62 70 -137 146 -258 261 -524 427
-858 537 -62 20 -120 36 -127 35 -2 0 -25 6 -53 14 -27 8 -84 19 -125 26 -41
6 -91 13 -110 17 -48 9 -2750 14 -2750 5z"/>
<path d="M10170 19810 c0 -5 4 -10 9 -12 4 -1 23 -15 42 -30 57 -45 479 -376
557 -436 40 -31 82 -62 93 -68 14 -8 378 -11 1277 -11 l1257 0 40 31 c22 17
42 33 45 36 6 6 261 205 301 235 51 38 329 258 329 261 0 1 -889 2 -1975 2
-1086 0 -1975 -3 -1975 -8z"/>
<path d="M17643 19806 c6 -7 116 -92 242 -191 127 -98 253 -197 281 -219 28
-23 65 -52 84 -66 18 -14 69 -53 113 -88 44 -34 84 -61 88 -60 8 3 234 178
533 413 84 66 168 131 186 145 18 14 42 33 53 43 11 9 24 17 29 17 4 0 8 4 8
9 0 6 -313 10 -815 10 -639 -1 -812 -3 -802 -13z"/>
<path d="M21990 19816 c0 -2 66 -54 146 -117 80 -63 236 -185 347 -272 111
-87 209 -162 217 -167 8 -4 742 -7 1630 -7 l1615 0 100 78 c303 235 536 418
575 451 l44 37 -2337 -1 c-1285 0 -2337 -1 -2337 -2z"/>
<path d="M3509 19748 c-1 -2 -2 -1592 -3 -3534 l-1 -3532 30 21 c25 18 341
264 656 510 l66 52 0 2947 c0 1620 -3 2950 -6 2955 -3 5 -67 56 -141 113 -74
58 -137 107 -140 110 -3 3 -50 41 -105 83 -55 43 -113 89 -130 101 -172 135
-225 176 -226 174z"/>
<path d="M17480 19702 c-6 -26 -13 -54 -15 -62 -2 -8 -8 -35 -15 -60 -7 -25
-13 -52 -15 -60 -2 -8 -8 -35 -14 -60 -7 -25 -14 -55 -16 -67 -3 -12 -17 -71
-31 -130 -14 -60 -28 -116 -30 -125 -2 -10 -6 -26 -8 -35 -3 -10 -18 -76 -35
-148 -17 -71 -35 -146 -41 -165 -5 -19 -21 -82 -34 -140 -14 -58 -46 -193 -72
-300 -25 -107 -48 -202 -50 -210 -2 -8 -13 -53 -24 -100 -12 -47 -23 -92 -25
-100 -2 -8 -14 -62 -28 -120 -14 -58 -45 -184 -67 -280 -23 -96 -44 -182 -46
-190 -2 -8 -17 -73 -34 -145 -17 -71 -33 -137 -35 -145 -2 -8 -29 -118 -59
-245 -60 -246 -116 -480 -121 -505 -2 -8 -8 -35 -15 -60 -7 -25 -14 -54 -16
-65 -2 -11 -15 -65 -29 -120 -23 -93 -62 -260 -70 -296 -2 -9 -8 -33 -14 -55
-6 -21 -22 -91 -37 -154 -15 -63 -33 -140 -41 -170 -8 -30 -16 -66 -19 -78 -3
-13 -21 -90 -40 -170 -20 -81 -37 -154 -39 -162 -2 -8 -19 -80 -39 -160 -41
-172 -77 -319 -81 -340 -3 -14 -47 -196 -96 -400 -12 -47 -22 -92 -24 -100 -2
-8 -21 -89 -43 -180 -23 -91 -50 -205 -62 -255 -12 -49 -32 -133 -45 -186 -13
-53 -26 -107 -29 -120 -2 -13 -23 -100 -46 -194 -23 -93 -43 -177 -45 -185 -2
-8 -10 -43 -18 -78 l-16 -63 37 28 c38 28 265 205 292 227 9 7 107 83 219 171
118 92 207 169 212 183 9 22 25 87 35 137 3 19 57 244 71 295 3 14 7 30 9 37
1 7 9 40 18 75 15 64 135 560 141 588 13 59 137 573 140 583 2 7 6 23 9 37 2
14 11 52 20 85 14 55 54 220 61 255 7 29 114 477 154 640 22 91 45 188 51 215
7 28 13 57 15 65 6 23 100 413 145 600 86 356 102 424 105 439 2 9 26 110 54
225 28 115 54 222 57 239 2 17 7 33 9 37 2 3 6 17 8 31 3 13 10 44 17 69 7 25
13 52 15 60 2 8 17 74 35 145 17 72 33 140 36 151 6 33 101 426 109 454 4 15
26 120 26 125 0 2 6 23 14 45 8 22 14 41 13 43 -2 3 62 279 73 312 7 23 6 32
-8 46 -19 18 -470 370 -490 382 -7 4 -15 -10 -23 -41z"/>
<path d="M19304 19677 c-50 -40 -104 -82 -120 -94 -34 -26 -51 -40 -169 -134
-49 -39 -99 -77 -109 -85 -18 -12 -19 -18 -8 -61 31 -127 124 -513 132 -548 4
-22 11 -49 13 -60 8 -30 38 -158 42 -175 2 -8 13 -53 25 -100 12 -47 24 -95
26 -107 2 -13 29 -125 60 -250 30 -126 73 -302 94 -393 21 -91 55 -232 75
-315 20 -82 38 -157 40 -165 2 -8 22 -91 44 -185 23 -93 56 -228 73 -300 46
-193 137 -571 154 -643 9 -35 17 -68 18 -75 3 -13 8 -32 37 -152 11 -44 22
-89 24 -100 2 -11 9 -38 14 -60 6 -22 14 -58 19 -80 5 -22 28 -119 51 -215 24
-96 44 -182 46 -190 2 -8 12 -51 24 -95 11 -44 22 -91 25 -105 2 -14 25 -108
49 -210 94 -386 169 -696 172 -710 11 -52 29 -127 70 -295 26 -104 49 -201 51
-215 3 -14 10 -43 16 -65 5 -22 12 -51 15 -65 9 -55 33 -123 47 -134 8 -6 71
-56 141 -111 70 -55 164 -128 209 -163 101 -78 113 -88 261 -205 66 -52 122
-93 124 -92 1 2 -4 32 -12 67 -9 35 -29 119 -46 188 -33 139 -73 304 -133 550
-22 91 -41 174 -44 185 -7 37 -13 60 -44 185 -17 69 -35 143 -40 165 -10 49
-52 220 -124 516 -30 124 -57 237 -60 250 -2 13 -16 71 -31 129 -15 58 -28
112 -29 120 -1 8 -5 26 -9 40 -7 24 -115 480 -122 510 -2 8 -24 101 -50 205
-25 105 -48 198 -50 208 -2 10 -6 26 -9 35 -3 9 -7 28 -10 42 -2 14 -20 91
-40 173 -20 81 -52 213 -71 295 -20 81 -58 239 -85 352 -27 113 -66 273 -85
355 -20 83 -63 263 -96 400 -34 138 -62 257 -64 265 -5 24 -53 227 -61 255
-15 59 -75 310 -79 336 -3 18 -7 35 -9 38 -3 5 -54 213 -81 331 -2 8 -15 61
-29 117 -14 56 -28 112 -30 125 -5 24 -70 296 -107 448 -25 101 -27 111 -28
128 -1 20 -11 14 -107 -61z"/>
<path d="M10040 16216 c0 -1939 3 -3526 6 -3526 4 0 67 47 140 105 74 58 160
125 192 150 31 24 118 91 192 150 74 58 145 113 157 122 l22 17 0 2977 -1
2976 -215 169 c-119 93 -251 196 -294 229 -43 33 -105 82 -138 108 l-61 48 0
-3525z"/>
<path d="M14185 19695 c-27 -21 -70 -54 -95 -74 -25 -20 -51 -40 -58 -46 -7
-5 -18 -15 -25 -20 -7 -6 -100 -79 -207 -162 -107 -84 -210 -165 -228 -180
l-33 -28 48 -37 c26 -21 138 -108 248 -194 110 -86 214 -167 230 -180 17 -12
62 -48 100 -78 l70 -56 3 269 c1 148 1 394 0 547 l-3 277 -50 -38z"/>
<path d="M21870 19185 c0 -300 2 -545 5 -545 3 0 81 60 174 133 164 128 280
219 447 349 l81 63 -244 190 c-135 105 -250 195 -256 200 -38 33 -196 155
-201 155 -3 0 -6 -245 -6 -545z"/>
<path d="M26529 19540 c-463 -361 -452 -352 -437 -365 21 -19 430 -340 623
-489 22 -17 43 -35 47 -41 4 -5 10 -6 14 -3 8 8 10 1075 2 1083 -3 3 -115 -80
-249 -185z"/>
<path d="M18101 19162 c-13 -53 -39 -162 -58 -242 -19 -80 -37 -152 -38 -160
-2 -8 -22 -91 -45 -185 -23 -93 -44 -181 -46 -195 -3 -14 -9 -38 -14 -55 -5
-16 -11 -41 -14 -55 -3 -14 -32 -140 -66 -280 -34 -140 -63 -262 -65 -270 -1
-8 -8 -35 -15 -60 -7 -25 -14 -56 -16 -68 -3 -13 -27 -114 -54 -225 -26 -111
-65 -272 -85 -357 -21 -85 -66 -274 -101 -419 -35 -145 -66 -273 -69 -285 -2
-11 -11 -50 -20 -86 -9 -36 -18 -72 -20 -80 -2 -8 -15 -64 -30 -125 -15 -60
-28 -117 -30 -125 -2 -8 -57 -242 -124 -519 -67 -277 -120 -506 -118 -507 2
-2 75 53 163 121 87 69 224 176 303 237 293 230 345 273 347 293 2 11 8 36 13
55 6 19 52 195 102 390 49 195 110 432 134 525 55 214 115 450 120 473 2 9 30
116 62 237 l58 220 0 824 0 825 -100 78 c-55 43 -112 87 -126 98 l-25 19 -23
-97z"/>
<path d="M18714 19216 c-27 -22 -66 -53 -85 -68 -18 -15 -52 -41 -74 -58 l-40
-32 0 -806 c0 -640 2 -817 13 -857 7 -27 15 -57 17 -65 6 -26 156 -612 176
-690 11 -41 22 -82 24 -90 2 -8 33 -132 70 -275 36 -143 68 -267 70 -275 2 -8
27 -105 56 -215 28 -110 56 -221 62 -247 7 -37 18 -54 46 -75 20 -15 41 -32
47 -38 7 -5 44 -35 84 -65 40 -30 96 -73 124 -96 300 -238 516 -401 516 -389
0 8 -15 79 -34 157 -19 79 -44 184 -55 233 -12 50 -26 108 -32 129 -6 22 -12
46 -14 55 -5 26 -31 134 -75 316 -23 94 -43 177 -45 185 -2 8 -15 63 -29 123
-14 59 -37 153 -50 210 -53 219 -77 320 -130 542 -57 235 -99 408 -160 665
-31 128 -70 291 -137 570 -12 47 -22 92 -24 100 -2 8 -10 43 -19 78 -9 34 -21
82 -26 105 -9 46 -48 209 -105 442 -20 83 -39 159 -41 170 -8 43 -72 297 -76
300 -1 1 -26 -16 -54 -39z"/>
<path d="M4530 19129 c0 -4 164 -135 364 -292 l365 -284 278 -1 c153 0 298 -3
323 -6 175 -25 358 -104 490 -210 57 -47 159 -156 194 -209 26 -39 42 -55 50
-49 37 29 374 297 391 310 11 10 48 40 83 67 34 28 62 55 62 60 0 17 -132 175
-206 248 -176 172 -436 314 -626 342 -23 4 -45 8 -48 10 -28 18 -1720 31
-1720 14z"/>
<path d="M11085 19095 c17 -13 58 -46 91 -72 34 -26 78 -61 99 -78 21 -16 126
-99 234 -183 108 -84 203 -158 211 -165 9 -6 24 -19 34 -27 17 -13 166 -15
1185 -16 641 0 1169 1 1174 3 4 3 -50 49 -120 105 -71 55 -141 111 -158 124
-16 13 -120 93 -229 178 l-200 155 -1175 0 -1176 0 30 -24z"/>
<path d="M22634 19061 c-39 -31 -129 -101 -200 -156 -323 -252 -429 -336 -432
-343 -1 -4 315 -7 702 -7 l704 0 356 278 c196 153 356 280 356 282 0 3 -318 4
-707 4 l-708 -1 -71 -57z"/>
<path d="M24683 18997 c85 -67 247 -194 360 -282 l205 -160 705 0 c388 0 703
3 701 7 -4 6 -209 167 -378 298 -39 30 -129 100 -200 156 l-130 102 -709 1
-710 1 156 -123z"/>
<path d="M10883 17695 l0 -1384 37 27 c49 36 95 72 133 102 34 28 205 161 432
338 83 64 162 127 176 140 l26 23 1 754 1 754 -33 28 c-17 15 -47 39 -66 53
-27 20 -199 155 -455 356 -16 13 -75 58 -130 100 -55 42 -105 81 -111 85 -8 6
-11 -380 -11 -1376z"/>
<path d="M4392 17705 c0 -1029 2 -1344 11 -1338 7 4 53 39 102 78 50 39 171
134 270 211 99 77 223 174 275 215 l95 74 -1 755 c-1 415 -2 760 -3 766 0 6
-35 38 -77 70 -43 32 -82 63 -88 69 -6 6 -27 22 -46 35 -19 13 -37 27 -40 30
-5 6 -170 135 -230 180 -19 14 -48 37 -64 51 -45 37 -194 149 -199 149 -3 0
-5 -605 -5 -1345z"/>
<path d="M24184 18992 c-39 -31 -107 -84 -149 -117 -43 -33 -104 -80 -135
-105 -32 -25 -72 -56 -90 -70 -35 -26 -144 -112 -170 -133 -9 -7 -41 -32 -73
-56 l-57 -43 0 -2890 c0 -2311 3 -2888 13 -2881 6 6 129 101 272 212 143 112
269 210 280 219 11 10 57 46 103 81 55 43 82 70 83 85 4 97 3 5756 -1 5756 -3
-1 -37 -26 -76 -58z"/>
<path d="M24399 19048 c-1 -2 -2 -1299 -4 -2883 -1 -2004 2 -2884 9 -2894 6
-7 47 -41 91 -74 44 -34 82 -63 85 -67 3 -3 86 -68 185 -145 99 -77 187 -145
195 -152 89 -73 173 -134 177 -129 4 3 6 1302 6 2887 0 2158 -3 2883 -11 2888
-12 7 -146 111 -381 296 -70 55 -142 111 -161 125 -18 14 -46 36 -64 50 -95
77 -126 101 -127 98z"/>
<path d="M7769 18827 c-64 -51 -183 -144 -264 -207 -81 -63 -156 -122 -167
-130 -18 -14 -17 -19 35 -122 293 -580 179 -1237 -293 -1698 -150 -146 -315
-265 -473 -340 -48 -23 -87 -43 -87 -45 0 -1 254 -3 564 -3 l565 -1 43 48
c174 190 329 426 427 649 121 277 165 496 157 787 -9 315 -71 573 -205 852
-54 111 -169 303 -181 303 -3 -1 -57 -42 -121 -93z"/>
<path d="M6940 18184 c-140 -113 -265 -213 -278 -222 -22 -17 -22 -18 -7 -67
102 -332 -69 -736 -393 -927 -178 -105 -266 -120 -697 -121 l-330 0 -200 -157
c-110 -86 -271 -212 -357 -279 -87 -68 -158 -125 -158 -127 0 -7 1646 2 1675
10 155 39 347 121 488 210 353 222 588 516 687 859 36 124 45 191 44 337 0
147 -19 260 -66 395 -42 123 -126 295 -142 294 -6 0 -126 -92 -266 -205z"/>
<path d="M11713 16787 c-116 -89 -527 -410 -533 -417 -3 -3 -29 -23 -57 -45
-29 -21 -53 -40 -53 -41 0 -1 525 -2 1166 -2 l1167 0 141 112 c77 61 153 120
168 131 69 52 408 318 408 322 0 1 -523 3 -1162 3 l-1163 -1 -82 -62z"/>
<path d="M14040 16614 c-102 -80 -241 -189 -309 -242 -68 -53 -132 -104 -143
-114 -10 -9 -28 -22 -38 -30 -17 -12 9 -35 322 -278 187 -146 347 -271 354
-278 12 -11 14 72 14 537 0 303 -3 551 -7 551 -5 -1 -91 -66 -193 -146z"/>
<path d="M4540 16127 c30 -26 41 -34 265 -209 227 -177 277 -217 295 -231 8
-7 43 -33 76 -59 l61 -47 353 -1 c194 -1 364 -5 379 -10 14 -4 51 -13 81 -20
68 -15 185 -68 259 -117 81 -53 199 -179 252 -269 62 -105 90 -182 114 -314
13 -67 6 -204 -14 -285 -15 -61 -17 -83 -8 -91 32 -30 547 -435 554 -436 14
-1 109 201 142 300 49 151 64 244 65 382 1 151 -8 216 -48 371 -11 41 -70 178
-103 238 -110 201 -295 403 -498 543 -52 36 -203 128 -209 128 -3 0 -37 15
-78 34 -86 40 -173 72 -231 86 -23 6 -51 14 -62 17 -11 4 -391 8 -845 9 l-825
2 25 -21z"/>
<path d="M6520 16144 c0 -2 38 -21 84 -44 98 -47 265 -155 351 -227 407 -339
615 -795 574 -1258 -7 -81 -15 -141 -25 -185 -3 -14 -7 -36 -10 -50 -15 -72
-74 -227 -121 -319 -29 -57 -50 -108 -46 -112 4 -4 46 -37 93 -73 47 -37 92
-72 100 -79 73 -59 369 -287 373 -287 3 0 32 44 65 98 145 235 233 459 286
722 24 121 31 214 30 410 -1 254 -35 426 -134 665 -92 221 -267 495 -439 686
l-50 56 -566 0 c-311 0 -565 -2 -565 -3z"/>
<path d="M11091 16127 c52 -42 602 -473 622 -487 12 -8 33 -25 47 -37 l25 -23
1167 0 c643 0 1168 2 1168 5 0 2 -55 47 -122 99 -68 52 -229 177 -359 279
l-235 184 -1169 0 c-1164 0 -1168 0 -1144 -20z"/>
<path d="M10883 14726 l0 -1384 96 73 c53 40 233 181 401 313 l305 239 2 762
1 761 -226 177 c-125 98 -301 235 -390 306 -90 70 -169 130 -176 133 -10 4
-13 -278 -13 -1380z"/>
<path d="M4392 14720 c-1 -1266 0 -1351 16 -1337 12 10 535 417 617 479 6 4
35 28 65 52 l55 45 0 762 0 762 -179 141 c-98 78 -190 150 -205 161 -14 10
-98 75 -186 144 -88 68 -165 128 -172 133 -9 7 -11 -315 -11 -1342z"/>
<path d="M17830 15283 c-52 -41 -108 -86 -124 -99 -16 -13 -43 -34 -59 -46
-146 -112 -423 -331 -425 -337 -1 -4 551 -8 1227 -8 677 0 1228 3 1226 7 -3 5
-76 63 -163 131 -86 68 -171 134 -188 148 -17 14 -44 36 -60 48 -16 13 -90 70
-164 128 l-135 105 -520 -1 -520 -1 -95 -75z"/>
<path d="M17220 14655 c0 -3 246 -197 344 -271 22 -17 113 -88 201 -157 l160
-127 522 0 521 0 129 100 c70 56 138 108 150 118 12 9 112 87 222 172 110 85
200 158 200 162 1 3 -550 6 -1224 6 -674 0 -1225 -1 -1225 -3z"/>
<path d="M17016 14631 c-4 -6 -15 -50 -31 -121 -2 -8 -15 -62 -29 -120 -15
-58 -28 -114 -30 -125 -3 -11 -25 -103 -49 -205 -127 -522 -181 -748 -184
-775 -3 -29 13 -43 363 -315 202 -157 373 -286 379 -288 7 -2 17 17 24 45 7
26 23 84 37 128 13 44 26 89 29 100 5 25 147 518 220 765 20 69 39 134 41 145
2 11 13 47 23 80 15 46 16 63 8 71 -7 7 -151 120 -322 253 -170 133 -317 247
-325 254 -94 76 -150 115 -154 108z"/>
<path d="M19840 14613 c-19 -15 -37 -30 -40 -33 -3 -3 -32 -26 -65 -50 -33
-25 -92 -70 -130 -101 -106 -84 -267 -211 -305 -239 -84 -63 -230 -181 -230
-186 0 -2 15 -57 34 -122 19 -64 105 -362 191 -662 86 -300 157 -546 158 -547
2 -1 145 109 258 199 19 15 139 109 267 209 171 133 231 185 228 198 -3 9 -14
57 -25 106 -12 50 -48 203 -81 340 -34 138 -63 261 -66 273 -3 13 -20 87 -40
165 -32 130 -81 340 -89 377 -5 28 -26 100 -28 100 -1 0 -18 -12 -37 -27z"/>
<path d="M6540 14297 c-94 -133 -220 -241 -365 -314 -78 -40 -187 -78 -249
-88 -17 -3 -44 -8 -61 -12 -16 -3 -160 -7 -320 -8 l-290 -1 -76 -60 c-128 -99
-433 -338 -449 -351 -8 -7 -59 -46 -112 -88 -54 -42 -98 -77 -98 -78 0 -1 368
-2 818 -1 813 1 904 5 1012 39 10 3 27 7 37 9 34 7 158 57 218 88 153 79 297
197 427 350 62 73 97 122 98 133 0 6 -32 35 -71 65 -39 30 -76 60 -83 65 -6 6
-45 37 -86 70 -41 32 -77 61 -80 64 -3 4 -25 22 -50 41 -49 38 -66 52 -114 90
-66 54 -59 55 -106 -13z"/>
<path d="M11433 13602 c-194 -152 -354 -279 -357 -282 -2 -3 519 -5 1158 -5
831 0 1167 3 1177 11 47 37 419 327 547 426 83 65 152 121 152 123 0 3 -523 5
-1162 4 l-1163 -1 -352 -276z"/>
<path d="M7175 13763 c-66 -83 -209 -230 -265 -272 -19 -14 -37 -28 -40 -32
-10 -12 -127 -87 -180 -116 -102 -55 -267 -113 -365 -128 -16 -3 -57 -9 -90
-14 -34 -5 -451 -10 -955 -10 -730 -1 -898 -4 -915 -15 -11 -7 -179 -138 -374
-290 l-353 -276 1338 1 c1089 1 1359 3 1444 15 407 54 757 204 1075 459 93 75
246 225 289 284 l25 34 -87 68 c-48 37 -174 135 -280 218 -106 83 -196 151
-200 150 -4 0 -34 -34 -67 -76z"/>
<path d="M14210 13781 c-61 -48 -150 -118 -181 -142 -19 -15 -139 -109 -268
-209 l-234 -183 24 -18 c13 -10 173 -134 354 -276 l330 -259 3 272 c1 150 1
399 0 554 l-3 281 -25 -20z"/>
<path d="M10625 12969 c-149 -116 -309 -241 -357 -277 -48 -37 -87 -70 -87
-73 -1 -3 885 -6 1969 -6 l1970 0 -38 33 c-20 18 -40 33 -44 34 -4 0 -13 6
-20 13 -13 12 -138 112 -198 157 -18 14 -120 94 -227 178 l-195 152 -1252 0
-1252 0 -269 -211z"/>
<path d="M16495 13090 c-50 -39 -97 -76 -105 -83 -8 -6 -124 -97 -258 -201
-133 -104 -242 -189 -242 -191 0 -1 317 -2 705 -2 l704 0 -37 29 c-20 16 -44
34 -52 41 -19 15 -52 41 -270 211 -96 75 -182 142 -190 149 -74 59 -151 117
-157 117 -5 0 -49 -32 -98 -70z"/>
<path d="M20090 13000 c-113 -89 -212 -166 -220 -173 -8 -7 -67 -52 -130 -101
-63 -49 -121 -94 -128 -101 -10 -9 145 -12 687 -12 515 0 698 3 695 11 -2 6
-14 18 -27 25 -12 8 -58 43 -102 78 -263 207 -555 433 -562 433 -4 0 -100 -72
-213 -160z"/>
<path d="M24304 13141 c-10 -10 -86 -71 -169 -135 -82 -64 -157 -122 -165
-129 -8 -7 -33 -26 -55 -42 -22 -16 -42 -32 -45 -35 -3 -3 -56 -45 -117 -94
-62 -48 -113 -89 -113 -90 0 -2 311 -3 691 -3 546 0 687 3 677 12 -10 9 -594
466 -674 526 -6 5 -19 0 -30 -10z"/>
<path d="M13408 11035 c-129 -34 -209 -135 -216 -272 -6 -99 18 -162 83 -229
154 -156 432 -95 501 109 37 110 9 242 -67 316 -74 72 -199 103 -301 76z m179
-113 c114 -82 132 -232 38 -323 -96 -95 -244 -68 -306 54 -23 44 -27 124 -10
170 16 40 80 106 115 117 47 14 131 5 163 -18z"/>
<path d="M18343 11034 c-127 -33 -211 -138 -217 -275 -10 -186 142 -329 328
-313 73 7 196 70 196 101 0 5 -16 24 -35 43 -19 19 -35 30 -35 24 0 -15 -82
-62 -123 -69 -52 -10 -122 11 -158 48 -46 45 -62 85 -62 152 -1 179 179 266
321 155 l26 -21 34 37 c31 35 32 38 16 55 -54 59 -191 89 -291 63z"/>
<path d="M8881 11026 c-5 -6 -8 -137 -8 -290 l2 -280 48 -1 c26 -1 48 2 48 6
1 5 2 46 3 92 l1 82 100 6 c114 7 168 28 208 81 56 75 49 196 -15 254 -53 49
-85 57 -236 59 -91 1 -146 -3 -151 -9z m304 -117 c19 -18 26 -37 28 -68 1 -37
-3 -47 -31 -72 -18 -16 -42 -30 -55 -30 -58 -4 -133 -4 -142 -2 -8 3 -13 179
-6 201 0 2 41 2 91 0 80 -3 92 -6 115 -29z"/>
<path d="M9924 11025 c-3 -6 -3 -136 -2 -290 l3 -280 205 -1 c113 0 210 2 216
4 7 2 11 21 10 45 l-2 42 -157 1 c-86 0 -160 4 -164 8 -5 4 -8 39 -8 77 l-1
69 86 1 c47 0 112 1 145 2 l60 2 1 35 c0 19 -1 40 -3 45 -2 7 -53 10 -136 10
-72 -1 -137 0 -143 2 -9 3 -12 78 -5 138 1 6 60 9 161 8 l160 -2 0 47 0 47
-211 0 c-135 0 -213 -4 -215 -10z"/>
<path d="M10970 10745 l0 -291 50 0 c28 0 51 2 51 5 1 4 3 47 4 96 2 50 3 94
4 98 1 4 28 7 60 6 l59 -2 64 -90 c34 -49 66 -94 70 -100 6 -10 128 -18 128
-9 0 2 -34 52 -75 110 l-74 105 40 20 c92 45 123 169 65 257 -46 70 -90 83
-283 85 l-163 1 0 -291z m320 180 c50 -26 63 -71 35 -125 -20 -38 -68 -52
-170 -48 l-80 3 -1 85 c0 47 1 88 3 93 8 14 182 8 213 -8z"/>
<path d="M12065 11026 c-2 -6 -3 -137 -2 -291 l2 -280 50 0 50 1 0 202 c0 111
1 202 2 202 1 0 70 -89 154 -197 84 -109 154 -200 155 -202 2 -2 24 -5 49 -6
l45 -3 0 292 0 292 -50 0 c-46 -1 -50 -2 -51 -26 0 -14 -1 -100 0 -192 0 -93
-2 -168 -4 -168 -3 0 -80 96 -160 200 -146 190 -140 184 -191 185 -25 1 -48
-3 -49 -9z"/>
<path d="M14411 10749 c-1 -222 2 -288 11 -291 21 -7 250 -2 288 7 139 31 224
140 223 285 0 91 -30 159 -93 213 -63 54 -132 71 -292 72 l-136 1 -1 -287z
m304 172 c127 -57 152 -235 45 -325 -42 -35 -92 -48 -175 -44 l-70 3 -1 185
c0 102 1 188 3 193 8 15 157 7 198 -12z"/>
<path d="M16299 11011 c-4 -112 -3 -551 1 -552 3 -1 26 -2 53 -3 36 -1 47 2
48 14 1 8 2 53 3 100 l1 85 62 3 c55 3 63 1 74 -19 6 -13 16 -28 21 -33 5 -6
31 -42 59 -81 l49 -70 59 0 60 -1 -14 25 c-8 14 -41 62 -74 106 -32 44 -57 83
-55 87 3 4 19 15 37 23 18 9 43 30 57 48 22 27 25 41 25 107 0 91 -20 126 -92
161 -42 20 -62 23 -210 24 l-163 2 -1 -26z m310 -82 c61 -21 75 -100 26 -148
-23 -24 -33 -26 -129 -29 l-104 -4 1 96 0 96 87 0 c48 0 101 -5 119 -11z"/>
<path d="M17399 11021 c-4 -73 -3 -561 1 -562 3 -1 26 -2 53 -3 44 -2 47 0 48
23 1 28 1 516 0 541 -1 23 -101 24 -102 1z"/>
<path d="M19446 11008 c-27 -64 -188 -434 -212 -487 -13 -29 -24 -56 -24 -60
0 -6 75 -7 101 -2 3 0 16 27 29 59 13 31 27 62 31 67 6 8 238 13 270 6 3 0 16
-27 29 -58 12 -32 27 -62 32 -68 5 -5 31 -10 58 -11 60 -1 62 -16 -25 181 -34
77 -88 200 -120 273 l-58 132 -49 0 c-44 0 -49 -2 -62 -32z m109 -204 c26 -58
44 -108 42 -111 -5 -5 -76 -7 -154 -4 l-31 1 46 110 c26 60 48 110 48 110 1 0
23 -48 49 -106z"/>
<path d="M20409 11030 c-4 -17 -3 -570 1 -571 3 -1 25 -2 50 -3 l45 -2 5 101
5 100 60 0 59 0 71 -99 71 -100 57 -1 c31 -1 57 2 57 6 0 4 -33 54 -72 110
-43 60 -68 104 -61 106 25 9 77 49 96 75 42 56 31 173 -21 225 -48 48 -84 56
-259 58 -90 0 -164 -2 -164 -5z m308 -100 c54 -19 73 -82 40 -132 -27 -40 -48
-46 -159 -47 l-88 -1 0 95 0 95 89 0 c48 0 102 -5 118 -10z"/>
<path d="M21503 11027 c-5 -8 -8 -402 -4 -543 l1 -31 148 2 c134 2 152 5 202
28 63 29 87 48 122 97 48 66 63 150 43 237 -21 90 -72 149 -164 191 -49 23
-68 25 -198 27 -85 1 -147 -3 -150 -8z m296 -103 c51 -20 95 -69 106 -119 18
-74 8 -130 -32 -184 -38 -50 -93 -71 -189 -71 l-81 0 0 195 0 195 78 0 c48 0
94 -6 118 -16z"/>
</g>
</svg>
